<svg width="26" height="31" viewBox="0 0 26 31" fill="none" xmlns="http://www.w3.org/2000/svg">
<path d="M21.3226 16.3406C21.0738 13.6068 22.4468 11.6395 24.4742 10.014C22.9168 8.0098 20.954 6.86454 18.4197 7.11391C17.2125 7.23398 16.0237 7.63113 14.8534 7.97286C13.8213 8.27765 12.8168 8.36077 11.7754 8.02827C11.2778 7.87126 10.771 7.74196 10.2641 7.61266C8.94633 7.27093 7.61931 7.04003 6.25544 7.34481C4.09904 7.82508 2.67987 9.21972 1.68461 11.1223C0.735429 12.9788 0.458968 15.0014 0.578768 17.0703C0.799937 21.1803 2.40341 24.7546 4.92842 27.941C5.38919 28.5229 5.99741 29.0032 6.60562 29.4373C7.48108 30.0468 8.47634 30.2038 9.50846 29.8898C10.0522 29.7236 10.5867 29.5296 11.1119 29.3264C12.5219 28.763 13.9411 28.6799 15.3879 29.1787C15.8394 29.3357 16.2818 29.5296 16.7425 29.622C17.4613 29.7698 18.1893 29.9729 18.9081 29.936C20.1891 29.8713 21.1014 29.0401 21.9031 28.1258C23.267 26.5741 24.2807 24.81 25.0364 22.889C25.1469 22.6211 25.2299 22.344 25.322 22.0854C22.8615 20.9217 21.5622 18.9821 21.3226 16.3406Z" fill="#015C57"/>
<path d="M17.4986 4.68625C18.3648 3.40245 18.7887 1.96163 18.5768 0.373047C14.3469 1.14887 12.6144 4.45535 12.808 7.53093C14.6234 7.46627 15.932 7.02295 17.4986 4.68625Z" fill="#015C57"/>
</svg>
