<svg width="33" height="33" viewBox="0 0 33 33" fill="none" xmlns="http://www.w3.org/2000/svg">
<path d="M32.5286 4.37633C32.5286 1.77939 30.7342 0 28.1174 0C20.2189 0 12.3418 0 4.44859 0C1.77837 0 0 1.77939 0 4.42976C0 8.37327 0 12.2954 0 16.2336C0 20.1984 0 24.174 0 28.1122C0 30.7251 1.76235 32.5419 4.3578 32.5419C12.2723 32.558 20.2029 32.558 28.1174 32.5419C30.7503 32.5259 32.5286 30.7626 32.5286 28.1442C32.5447 20.2305 32.5447 12.2954 32.5286 4.37633ZM26.558 20.7328C26.51 21.9137 26.2536 23.0519 25.5914 24.0618C24.7316 25.3816 23.4979 26.1404 21.9706 26.4503C21.0841 26.632 20.1815 26.6481 19.2843 26.6587C17.7944 26.6748 16.3044 26.6855 14.8144 26.6694C13.6448 26.6587 12.4699 26.6587 11.3057 26.5626C9.36714 26.4023 7.78102 25.5794 6.75566 23.8534C6.27502 23.0412 6.02936 22.1488 5.95993 21.2191C5.77836 18.7931 5.86381 16.3565 5.85846 13.9252C5.85846 13.0916 5.89051 12.258 5.95993 11.4298C6.13083 9.42594 6.94792 7.79083 8.74764 6.75419C9.53803 6.29999 10.4085 6.06488 11.3111 5.99541C13.7944 5.80839 16.2777 5.90457 18.761 5.89388C19.5514 5.88854 20.3471 5.92595 21.1321 5.99541C23.1775 6.18243 24.8224 7.04274 25.8317 8.90228C26.2376 9.65571 26.4779 10.4733 26.5153 11.3229C26.5901 13.0756 26.6168 14.8282 26.6541 16.1855C26.6221 17.9702 26.6114 19.3542 26.558 20.7328Z" fill="white"/>
<path d="M24.5654 11.0015C24.3358 9.40917 23.2089 8.28704 21.6388 7.98246C20.731 7.80612 19.8071 7.80612 18.8885 7.79543C17.1368 7.76872 15.3798 7.77406 13.6282 7.79543C12.779 7.80612 11.9246 7.85421 11.0808 7.95574C9.50002 8.14276 8.36784 9.19543 7.98867 10.7344C7.75903 11.6695 7.77505 12.6313 7.75903 13.5824C7.73233 15.0786 7.73233 16.5802 7.75369 18.0763C7.76437 19.1237 7.8071 20.1763 7.87652 21.2183C7.91924 21.8756 8.12218 22.5061 8.49067 23.0672C9.21163 24.1572 10.2904 24.6168 11.5401 24.7023C12.6669 24.7771 13.7991 24.7985 14.9259 24.8091C16.2664 24.8252 17.6068 24.8091 18.9473 24.7931C19.8818 24.7824 20.8164 24.7985 21.735 24.5847C23.1128 24.2695 24.0367 23.4466 24.4586 22.084C24.6669 21.4107 24.7096 20.716 24.7203 20.016C24.731 18.6802 24.7256 17.3496 24.7256 16.0137C24.7363 16.0137 24.7416 16.0137 24.7523 16.0137C24.7523 15.1748 24.7737 14.3305 24.747 13.4916C24.7096 12.658 24.6829 11.8191 24.5654 11.0015ZM16.2397 21.6298C13.1689 21.6191 10.8725 19.0809 10.9046 16.2168C10.9419 13.3046 13.3879 10.884 16.3785 10.9428C19.2196 10.9962 21.5854 13.3901 21.5854 16.2969C21.5854 19.2412 19.1822 21.6405 16.2397 21.6298ZM21.7937 11.9741C21.0834 11.9741 20.544 11.4344 20.5494 10.729C20.5547 10.0237 21.0995 9.47864 21.7937 9.48398C22.4986 9.48398 23.038 10.029 23.038 10.7344C23.0327 11.445 22.504 11.9794 21.7937 11.9741Z" fill="white"/>
<path d="M16.2565 12.8242C14.3499 12.8242 12.7905 14.3738 12.7852 16.2761C12.7798 18.157 14.3392 19.7387 16.2031 19.7387C18.147 19.7387 19.6957 18.2158 19.6957 16.2975C19.701 14.3792 18.163 12.8296 16.2565 12.8242Z" fill="white"/>
</svg>
