<svg width="33" height="33" viewBox="0 0 33 33" fill="none" xmlns="http://www.w3.org/2000/svg">
<path d="M28.3 0C20.3 0 12.4 0 4.5 0C1.8 0 0 1.8 0 4.5C0 8.5 0 12.4 0 16.4C0 20.4 0 24.4 0 28.4C0 31 1.8 32.9 4.4 32.9C12.4 32.9 20.4 32.9 28.3 32.9C31 32.9 32.7 31.1 32.7 28.5C32.7 20.5 32.7 12.5 32.7 4.5C32.8 1.8 30.9 0 28.3 0ZM11.3 25.2C11.3 25.3 11.3 25.3 11.3 25.4C10 25.4 8.6 25.4 7.3 25.4C7.3 21.4 7.3 17.3 7.3 13.3C7.4 13.3 7.5 13.3 7.5 13.3C8.7 13.3 9.8 13.3 11 13.3C11.2 13.3 11.3 13.4 11.3 13.6C11.2 17.4 11.3 21.3 11.3 25.2ZM9.2 11.6C7.9 11.6 7 10.8 7 9.5C7 8.3 7.9 7.4 9.3 7.4C10.6 7.4 11.5 8.3 11.6 9.5C11.5 10.7 10.6 11.6 9.2 11.6ZM25.8 25.4C24.5 25.4 23.1 25.4 21.8 25.4C21.8 25.3 21.8 25.2 21.8 25.1C21.8 23.1 21.8 21.1 21.8 19.1C21.8 18.6 21.8 18.1 21.6 17.7C21.2 16.3 19.7 15.8 18.5 16.6C17.9 17 17.5 17.6 17.5 18.3C17.5 18.9 17.5 19.5 17.5 20.1C17.5 21.7 17.5 23.4 17.5 25C17.5 25.1 17.5 25.3 17.5 25.4C16.1 25.4 14.8 25.4 13.5 25.4C13.5 21.4 13.5 17.3 13.5 13.3C14.8 13.3 16.1 13.3 17.5 13.3C17.5 13.8 17.5 14.4 17.5 15C17.6 14.9 17.6 14.9 17.7 14.8C18.7 13.4 20.1 12.9 21.7 13.1C24 13.4 25.4 14.8 25.7 17.2C25.8 17.7 25.8 18.1 25.8 18.6C25.8 20.8 25.8 23 25.8 25.2C25.8 25.2 25.8 25.3 25.8 25.4Z" fill="white"/>
</svg>
