<svg width="28" height="31" viewBox="0 0 28 31" fill="none" xmlns="http://www.w3.org/2000/svg">
<path d="M14.8852 16.0759C15.0635 15.8575 15.3738 15.6326 15.3738 15.4076C15.3738 15.1826 15.0635 14.9576 14.8852 14.7393C13.0366 12.4498 11.188 10.1603 9.33935 7.87081C7.7218 5.87247 6.10425 3.88075 4.4801 1.88242C4.22921 1.57804 4.02454 1.20748 3.70763 1.00236C3.3115 0.744294 2.84274 0.565635 2.38058 0.46638C1.49588 0.274487 0.842261 0.658273 0.512148 1.5251C0.380103 1.86918 0.267865 2.23974 0.261263 2.60367C0.234854 4.50937 0.241456 6.41507 0.241456 8.32077C0.241456 10.6764 0.241456 13.0387 0.241456 15.3943H0.248058C0.248058 16.3737 0.248058 17.353 0.248058 18.3389C0.248058 20.6549 0.234854 22.9708 0.248058 25.2801C0.254661 26.405 0.261263 27.5233 0.333888 28.6416C0.373501 29.204 0.617784 29.7334 1.10635 30.0841C1.86561 30.6333 3.35772 30.3289 3.98493 29.5481C5.91278 27.1528 7.84724 24.764 9.7817 22.3753C11.4785 20.2711 13.1819 18.1735 14.8852 16.0759Z" fill="#015C57"/>
<path d="M26.6506 14.2304C26.3865 13.8929 26.0432 13.5886 25.6735 13.3636C24.32 12.5365 22.9402 11.7623 21.5801 10.955C21.349 10.816 21.2302 10.8624 21.0717 11.0609C20.4973 11.7954 19.8965 12.51 19.3155 13.2379C18.7279 13.9591 18.1469 14.687 17.5593 15.4149C18.8072 16.95 20.0418 18.4719 21.283 20.0004C22.445 19.3189 23.574 18.6572 24.703 17.9955C25.3236 17.6316 25.964 17.3007 26.4724 16.7647C27.1854 15.9972 27.291 15.0377 26.6506 14.2304Z" fill="#015C57"/>
<path d="M19.6259 10.2342C15.2552 7.69331 10.9176 5.16561 6.57991 2.64453C6.5667 2.65777 6.5535 2.671 6.53369 2.68423C9.72916 6.62797 12.9246 10.5717 16.1399 14.5287C17.3217 13.0729 18.4639 11.6635 19.6259 10.2342Z" fill="#015C57"/>
<path d="M6.54028 28.1335C6.55349 28.1467 6.57329 28.16 6.5865 28.1732C10.9241 25.6389 15.2618 23.1046 19.6127 20.5636C18.4507 19.1344 17.3151 17.725 16.1465 16.2891C12.9312 20.2526 9.73575 24.1898 6.54028 28.1335Z" fill="#015C57"/>
</svg>
