<svg width="28" height="13" viewBox="0 0 28 13" fill="none" xmlns="http://www.w3.org/2000/svg">
<path d="M24.5551 5.99159C23.9649 5.99159 23.4274 5.99159 22.8794 5.99159C19.9181 5.99159 16.9672 5.99159 14.0059 5.99159C10.6335 5.99159 7.25059 5.99159 3.87822 5.99159C2.91921 5.99159 1.97073 5.99159 1.01171 5.99159C0.442623 5.99159 0 6.43421 0 6.99276C0 7.55131 0.442623 7.99393 1.02225 7.99393C7.17682 7.99393 13.3314 7.99393 19.486 7.99393C21.1195 7.99393 22.753 7.99393 24.3864 7.99393C24.4286 7.99393 24.4708 7.99393 24.5656 7.99393C24.5024 8.05716 24.4708 8.09932 24.4286 8.14147C23.3958 9.1848 22.3525 10.2176 21.3092 11.2609C20.8771 11.693 20.8665 12.3042 21.2775 12.7152C21.6675 13.1052 22.2998 13.0946 22.7213 12.6836C24.3021 11.1028 25.8829 9.52204 27.4637 7.94124C27.5375 7.86747 27.6113 7.80424 27.685 7.73047C28.0961 7.35107 28.1066 6.68714 27.7061 6.28667C27.1686 5.75974 26.6312 5.2328 26.0937 4.69533C24.9555 3.55716 23.8174 2.41899 22.6792 1.28081C22.2893 0.890881 21.6569 0.89088 21.2775 1.27027C20.8876 1.6602 20.8771 2.29252 21.267 2.69299C22.3209 3.74685 23.3642 4.80072 24.4181 5.85459C24.4497 5.87566 24.4918 5.91782 24.5551 5.99159Z" fill="white"/>
</svg>
