<svg width="33" height="33" viewBox="0 0 33 33" fill="none" xmlns="http://www.w3.org/2000/svg">
<path d="M32.7583 4.4218C32.7583 1.78793 30.9486 0.0137181 28.3162 0.0137181C20.3643 -0.0045727 12.4306 -0.0045727 4.47867 0.0137181C1.79147 0.0137181 0 1.80621 0 4.47667C0 8.44577 0 12.3966 0 16.3657C0 20.3531 0 24.3405 0 28.3461C0 30.98 1.79147 32.8091 4.38727 32.8091C12.3575 32.8274 20.346 32.8274 28.3162 32.8091C30.9668 32.8091 32.74 31.0166 32.7583 28.3827C32.7766 20.3897 32.7766 12.3966 32.7583 4.4218ZM27.8775 9.48835C27.5667 9.89074 27.2377 10.2748 26.8721 10.6407C26.5613 10.9516 26.2322 11.2443 25.8666 11.5003C25.7935 11.5552 25.757 11.6101 25.757 11.7015C25.7752 12.0673 25.7752 12.4515 25.757 12.8356C25.7204 13.5672 25.629 14.2805 25.4827 14.9939C25.2999 15.8535 25.044 16.6766 24.715 17.4997C24.3677 18.3411 23.9472 19.1459 23.4536 19.8958C22.7955 20.9018 22.0461 21.798 21.1503 22.6028C20.3277 23.3345 19.4502 23.9564 18.4631 24.4685C17.3663 25.0538 16.1964 25.4562 14.9899 25.7123C14.4049 25.8403 13.8199 25.9135 13.2349 25.9683C12.7231 26.0049 12.2112 26.0232 11.6994 26.0232C11.0596 26.0049 10.4198 25.95 9.79825 25.8586C9.06703 25.7488 8.3541 25.5659 7.65945 25.3282C6.59919 24.9806 5.59378 24.4868 4.6432 23.9015C4.62492 23.9015 4.62492 23.8832 4.58836 23.8649C7.239 24.1393 9.61544 23.4808 11.736 21.8529C11.608 21.8346 11.4983 21.8346 11.3886 21.8163C10.2187 21.7066 9.23155 21.231 8.40894 20.4079C7.87881 19.8775 7.49493 19.2556 7.239 18.5423C7.20244 18.4508 7.239 18.4508 7.31212 18.4691C7.78741 18.5606 8.2627 18.5606 8.75627 18.5057C8.95735 18.4874 9.15844 18.4508 9.35952 18.396C9.35952 18.3594 9.32296 18.3777 9.30468 18.3594C8.39066 18.1399 7.58633 17.7009 6.92824 17.0424C6.23358 16.3474 5.79486 15.506 5.61206 14.5366C5.55722 14.2439 5.52065 13.9513 5.52065 13.6586C5.52065 13.5672 5.52065 13.5489 5.61206 13.6038C6.16047 13.8964 6.76371 14.0793 7.38524 14.1525C7.47664 14.1708 7.56805 14.1708 7.65945 14.1708C7.65945 14.1159 7.62289 14.1159 7.60461 14.0976C6.74543 13.4757 6.14218 12.6527 5.81314 11.6467C5.6669 11.226 5.59377 10.787 5.57549 10.3297C5.53893 9.41518 5.74002 8.55552 6.17874 7.75072C6.2153 7.67756 6.23358 7.69585 6.27015 7.75072C6.69059 8.26286 7.1476 8.75671 7.64117 9.19569C8.40894 9.89074 9.24984 10.5126 10.1639 11.0248C10.9133 11.4455 11.6811 11.793 12.4855 12.0673C13.2349 12.3234 14.0027 12.5063 14.7888 12.6344C15.2092 12.7075 15.6479 12.7441 16.0867 12.7807C16.1598 12.7807 16.1964 12.7807 16.1781 12.6892C16.1049 12.36 16.0684 12.0125 16.0684 11.6649C16.0684 10.9882 16.1964 10.348 16.4706 9.72613C16.9641 8.61039 17.7685 7.7873 18.8836 7.27516C19.4502 7.0008 20.0535 6.87276 20.675 6.83618C21.4976 6.7996 22.2654 6.94593 23.0149 7.29345C23.5268 7.53123 23.9838 7.86047 24.3677 8.26286C24.4225 8.31774 24.4773 8.33602 24.5687 8.31773C25.5924 8.09824 26.5613 7.73243 27.4753 7.202C27.4936 7.202 27.4936 7.18371 27.5301 7.16542C27.3473 7.73243 27.0731 8.22628 26.7258 8.68355C26.3785 9.14082 25.9398 9.50664 25.4645 9.81758C25.9398 9.76271 26.3785 9.67125 26.8355 9.56151C27.2925 9.43347 27.7312 9.26886 28.1882 9.08595C28.0786 9.23228 27.9871 9.36031 27.8775 9.48835Z" fill="white"/>
</svg>
