<svg width="67" height="79" viewBox="0 0 67 79" fill="none" xmlns="http://www.w3.org/2000/svg">
<path d="M12.4722 57.512C12.4722 57.512 20.6224 66.4031 29.5135 59.9818C30.2544 59.4878 30.9953 58.7469 31.7363 58.253L32.4772 2.43665C31.7363 1.9427 30.9953 1.44875 30.5014 1.20178C27.0437 -0.774019 22.8452 -0.280069 19.8815 2.43665C19.8815 2.43665 11.9783 1.69573 10.2495 9.10498C7.28576 10.8338 5.55693 14.0445 5.80391 17.5021C3.08719 20.2188 1.85231 24.1704 2.59324 27.8751C-0.864412 31.3327 -0.864412 37.0131 2.59324 40.2238C1.60534 43.6815 3.08719 47.1391 5.80391 49.1149C5.80391 49.1149 6.29786 56.2772 12.4722 57.512ZM13.4601 21.9477L15.189 17.5021H15.4359C15.6829 17.5021 15.6829 17.5021 15.9299 17.5021L20.3754 25.4053C20.1285 25.6523 20.1285 25.6523 19.8815 25.8993L13.9541 23.4295C14.2011 22.9356 13.9541 22.4416 13.4601 21.9477ZM13.7071 24.1704L19.6345 26.6402V27.1341C19.6345 27.8751 19.8815 28.616 20.6224 28.863L16.4238 35.2843H16.1769L13.2132 24.6644C13.4601 24.6644 13.7071 24.4174 13.7071 24.1704ZM15.9299 38.742C16.1769 38.742 16.6708 38.495 16.9178 38.248L22.8452 41.4587V41.9526L15.9299 44.1754C15.6829 43.9284 15.4359 43.6815 15.4359 43.6815L15.9299 38.742ZM17.4117 37.5071C17.4117 37.2601 17.4117 37.2601 17.4117 37.0131C17.4117 36.5192 17.1648 36.2722 16.9178 35.7783L21.3633 29.1099C21.6103 29.1099 21.6103 29.1099 21.8573 29.1099L23.5861 39.9768C23.3391 39.9768 23.0921 40.2238 23.0921 40.4708L17.4117 37.5071ZM21.8573 24.9114C21.6103 24.9114 21.3633 24.9114 21.3633 25.1583L16.9178 17.0082C17.1648 16.7612 17.4117 16.2672 17.4117 15.7733C17.4117 15.7733 17.4117 15.7733 17.4117 15.5263L22.3512 13.7975C22.5982 14.0445 22.8452 14.5384 23.3391 14.5384L21.8573 24.9114ZM21.8573 13.0566L16.9178 14.7854C16.6708 14.2914 16.1769 14.0445 15.6829 14.0445C15.4359 14.0445 15.189 14.0445 14.942 14.2914L12.4722 10.8338L21.8573 13.0566ZM12.7192 21.7007H12.4722C12.2253 21.7007 11.7313 21.7007 11.4843 21.9477L8.02668 17.9961L14.2011 16.5142C14.2011 17.0082 14.448 17.0082 14.695 17.2551L12.7192 21.7007ZM12.4722 24.9114L14.942 35.5313C14.695 35.5313 14.695 35.7783 14.695 36.0252L4.81601 28.616L11.4843 24.4174C11.7313 24.6644 11.9783 24.9114 12.4722 24.9114ZM15.189 38.495L14.448 43.6815C13.9541 43.6815 13.7071 43.9284 13.4601 44.4224L4.81601 40.2238L14.448 38.001C14.695 38.248 14.942 38.495 15.189 38.495ZM14.942 46.6452H15.189L20.6224 52.0786C20.3754 52.3256 20.3754 52.5726 20.3754 53.0665V53.3135L13.9541 55.7832L14.942 46.6452ZM14.448 56.5241L20.8694 54.0544C21.1163 54.3014 21.3633 54.5484 21.8573 54.5484L22.1042 60.4757C18.8936 59.9818 16.4238 58.4999 14.448 56.5241ZM21.3633 51.3377L15.9299 45.9042C16.1769 45.6573 16.1769 45.4103 16.1769 44.9163L23.0921 42.6936C23.3391 42.9405 23.3391 43.1875 23.5861 43.1875L21.8573 51.0907C21.6103 51.3377 21.3633 51.3377 21.3633 51.3377ZM29.2665 57.512C27.5377 59.2409 25.0679 60.4757 22.3512 60.4757V54.5484C22.5982 54.5484 22.8452 54.3014 23.0921 54.0544L29.2665 57.0181V57.512ZM29.2665 56.0302L23.3391 53.3135V53.0665L29.2665 51.3377V56.0302ZM29.2665 50.5968L23.3391 52.3256C23.0921 52.0786 22.8452 51.8316 22.5982 51.5847L24.327 43.6815C24.574 43.6815 24.821 43.6815 24.821 43.4345L29.2665 47.88V50.5968ZM29.2665 46.6452L25.3149 42.9405C25.5619 42.6936 25.5619 42.1996 25.5619 41.9526C25.5619 41.7057 25.5619 41.4587 25.5619 41.4587L29.2665 38.9889V46.6452ZM29.5135 37.7541L25.5619 40.7178C25.3149 40.4708 24.821 40.2238 24.574 40.2238L22.8452 29.3569C23.0921 29.3569 23.3391 29.1099 23.3391 29.1099L29.7605 34.2964L29.5135 37.7541ZM23.5861 26.1462L29.5135 21.4537V28.616L23.8331 27.1341V26.8872C23.8331 26.8872 23.8331 26.6402 23.5861 26.1462ZM23.8331 28.122L29.7605 29.6039V33.0615L23.8331 28.369C23.5861 28.369 23.5861 28.369 23.8331 28.122ZM29.7605 20.4658L23.3391 25.4053C23.0921 25.1583 22.5982 24.9114 22.3512 24.9114L24.08 14.7854C24.574 14.7854 24.821 14.5384 25.3149 14.2914L30.2544 18.49L29.7605 20.4658ZM25.3149 13.5505C25.3149 13.3035 25.5619 13.0566 25.5619 12.8096L30.0074 11.5747L29.7605 17.2551L25.3149 13.5505ZM29.7605 10.5868L25.0679 12.0687L25.3149 11.8217L30.2544 5.15338L29.7605 10.5868ZM30.5014 3.67153L24.327 11.0808C24.08 10.8338 23.8331 10.8338 23.3391 10.8338H23.0921L20.8694 4.65943C20.8694 4.65943 24.08 -0.527044 30.5014 3.67153ZM19.8815 4.9064C19.8815 4.9064 20.1285 4.9064 19.8815 4.9064L22.5982 11.0808C22.3512 11.3277 22.3512 11.5747 22.1042 12.0687L12.2253 9.8459C12.9662 6.38825 16.4238 4.16548 19.8815 4.9064ZM11.7313 10.8338L14.2011 14.7854C13.9541 15.0324 13.9541 15.5263 13.9541 15.7733L7.77971 17.2551C7.77971 14.5384 9.26156 12.0687 11.7313 10.8338ZM7.53273 18.737L10.9904 22.6886C10.9904 22.9356 10.9904 23.1825 10.9904 23.4295C10.9904 23.6765 10.9904 23.6765 10.9904 23.9235L4.56903 27.8751C3.82811 24.4174 4.81601 20.9598 7.53273 18.737ZM3.58114 29.6039C3.82811 29.3569 3.82811 29.3569 4.07509 29.1099L14.2011 36.5192C14.2011 36.7662 14.2011 36.7662 14.2011 37.0131L4.32206 39.2359C1.60534 36.7662 1.11139 32.3206 3.58114 29.6039ZM4.32206 40.7178L13.2132 45.1633L7.53273 47.88C5.06298 46.3982 3.82811 43.6815 4.32206 40.7178ZM13.4601 45.9042C13.7071 46.1512 13.7071 46.1512 13.9541 46.3982L12.9662 55.5362C12.9662 55.5362 8.02668 55.0423 7.53273 48.621L13.4601 45.9042Z" fill="white"/>
<path d="M63.5966 28.3695C64.0906 24.6648 63.1027 20.7132 60.386 17.9965C60.6329 14.5389 58.9041 11.5752 55.9404 9.59936C54.2116 2.19012 46.3084 2.68407 46.3084 2.68407C43.5917 -0.0326539 39.1461 -0.773578 35.6885 1.20222C34.9476 1.4492 34.2067 1.94314 33.4657 2.43709L33.2188 58.2534C33.9597 58.9943 34.7006 59.4883 35.4415 60.2292C44.3326 66.6506 52.4828 58.0064 52.4828 58.0064C58.4102 56.7716 59.1511 49.8563 59.1511 49.8563C62.1148 47.8805 63.5966 44.4228 62.8557 40.9652C66.8073 37.2605 67.0543 31.8271 63.5966 28.3695ZM61.6208 28.1225L55.1995 23.9239C55.1995 23.6769 55.1995 23.6769 55.1995 23.43C55.1995 23.183 55.1995 22.936 55.1995 22.689L58.9041 18.7374C61.3739 21.2072 62.3618 24.9118 61.6208 28.1225ZM42.6038 40.7182C42.3568 40.4712 42.3568 40.4712 42.1098 40.2242L44.0856 29.3573C44.3326 29.3573 44.3326 29.3573 44.5796 29.3573L48.7782 36.0257C48.5312 36.2726 48.2842 36.7666 48.2842 37.0136C48.2842 37.2605 48.2842 37.2605 48.2842 37.5075L42.6038 40.7182ZM40.134 42.941L36.1824 46.6456V38.7424L39.8871 41.4591C39.8871 41.7061 39.8871 41.9531 39.8871 41.9531C39.8871 42.2 39.8871 42.447 40.134 42.941ZM36.1824 37.7545V34.2968L42.8508 29.1104C43.0977 29.3574 43.3447 29.3573 43.3447 29.3573L41.3689 40.2242C40.875 40.2242 40.628 40.4712 40.381 40.7182L36.1824 37.7545ZM51.7419 17.5026C51.9888 17.2556 52.2358 17.2556 52.2358 17.0086L58.4102 18.4905L54.7056 22.1951C54.4586 21.9481 53.9646 21.9481 53.7177 21.9481H53.4707L51.7419 17.5026ZM52.7298 22.1951C52.2358 22.4421 52.2358 22.936 52.2358 23.43V23.6769L46.3084 26.1467C46.3084 25.8997 46.0614 25.6527 45.8145 25.6527L50.26 17.7495C50.507 17.7495 50.507 17.7495 50.754 17.7495H51.0009L52.7298 22.1951ZM51.4949 14.2919C51.2479 14.2919 51.0009 14.0449 50.754 14.0449C50.26 14.0449 49.5191 14.2919 49.2721 14.7858L44.3326 12.81L53.7177 10.8342L51.4949 14.2919ZM49.0251 15.7737C49.0251 16.5147 49.2721 16.7616 49.5191 17.2556L45.0735 25.1588C44.8266 25.1588 44.5796 24.9118 44.5796 24.9118L43.3447 14.5389C43.8387 14.2919 44.0856 14.0449 44.3326 13.7979L49.0251 15.7737ZM43.0977 41.7061L49.0251 38.4954C49.2721 38.7424 49.5191 38.9894 50.013 38.9894L50.507 44.1758C50.26 44.1758 50.26 44.4228 50.013 44.6698L43.3447 42.2V41.7061H43.0977ZM50.013 35.5317H49.7661L45.5675 29.1104C46.0614 28.6164 46.5554 28.1225 46.5554 27.3816V27.1346L52.4828 24.6648C52.7298 24.9118 52.7298 24.9118 52.9767 25.1588L50.013 35.5317ZM50.754 38.7424C51.0009 38.4954 51.2479 38.4954 51.4949 38.2484L61.1269 40.7182L52.2358 44.9168C51.9888 44.6698 51.7419 44.1758 51.2479 44.1758L50.754 38.7424ZM51.2479 36.0257C51.2479 36.0257 51.0009 35.7787 50.754 35.7787L53.4707 25.1588C53.9646 25.1588 54.4586 24.9118 54.7056 24.6648L61.1269 28.8634L51.2479 36.0257ZM58.4102 17.5026L52.4828 16.0207C52.4828 15.5268 52.2358 15.2798 51.9888 14.7858L54.7056 10.8342C57.1753 12.3161 58.6572 14.7858 58.4102 17.5026ZM54.2116 9.84634V10.0933L44.3326 12.0691C44.3326 11.8221 44.0856 11.3282 43.8387 11.3282L46.5554 4.90684C50.013 4.16592 53.4707 6.38869 54.2116 9.84634ZM45.5675 4.65987L42.8508 10.8342C42.6038 10.8342 42.6038 10.8342 42.3568 10.8342C42.1098 10.8342 41.6159 10.8342 41.3689 11.0812L35.9355 3.42499C42.6038 -0.526604 45.5675 4.65987 45.5675 4.65987ZM36.1824 4.90684L40.875 11.5752L40.628 11.8221L36.1824 10.3403V4.90684ZM36.1824 11.3282L40.628 12.81C40.628 13.057 40.628 13.304 40.875 13.551L36.1824 17.2556V11.3282ZM36.1824 18.2435L41.1219 14.2919C41.3689 14.5389 41.8629 14.7858 42.1098 14.7858L43.3447 24.9118C42.8508 24.9118 42.6038 25.1588 42.3568 25.4058L36.1824 20.2193V18.2435ZM36.1824 21.4542L41.8629 26.3937C41.8629 26.6406 41.6159 26.8876 41.6159 27.1346V27.3816L35.9355 28.6164L36.1824 21.4542ZM36.1824 29.6043L42.1098 28.1225L42.3568 28.3695L36.1824 33.062V29.6043ZM36.1824 47.6335L40.628 43.4349C40.875 43.4349 41.1219 43.6819 41.1219 43.6819L42.6038 51.5851C42.3568 51.8321 42.1098 52.079 41.8629 52.326L35.9355 50.5972L36.1824 47.6335ZM36.1824 51.3381L41.8629 53.0669C41.8629 53.0669 41.8629 53.0669 41.8629 53.3139L35.9355 55.7837L36.1824 51.3381ZM42.8508 60.4762C40.381 60.4762 37.9113 59.2413 36.1824 57.5125V56.7716L42.3568 54.0548C42.6038 54.3018 42.8508 54.5488 43.0977 54.5488L42.8508 60.4762ZM41.8629 43.4349C42.1098 43.4349 42.3568 43.1879 42.6038 42.941L49.2721 45.4107C49.2721 45.6577 49.2721 46.1516 49.5191 46.3986L44.0856 51.5851C43.8387 51.5851 43.5917 51.3381 43.3447 51.3381L41.8629 43.4349ZM43.5917 60.4762L43.8387 54.5488C44.0856 54.5488 44.5796 54.3018 44.8266 54.0548L51.0009 56.7716C49.0251 58.7474 46.5554 59.9822 43.5917 60.4762ZM45.0735 53.3139C45.0735 53.0669 45.0735 53.3139 45.0735 53.3139C45.0735 52.82 45.0735 52.573 44.8266 52.326L50.013 46.8926H50.507L51.2479 56.0306L45.0735 53.3139ZM52.4828 55.7837L51.7419 46.6456C51.9888 46.6456 52.2358 46.3986 52.2358 46.1516L57.9162 49.1153C57.1753 55.0427 52.9767 55.7837 52.4828 55.7837ZM58.1632 48.3744L52.7298 45.6577L61.6208 41.2121C61.8678 43.9289 60.6329 46.8926 58.1632 48.3744ZM61.3739 39.7303L51.4949 37.2605C51.4949 37.0136 51.4949 37.0136 51.4949 36.7666L61.8678 29.6043C64.5845 32.321 64.5845 36.5196 61.8678 39.2363C61.8678 39.4833 61.6208 39.4833 61.3739 39.7303Z" fill="white"/>
<path d="M11.485 68.625H8.02734V78.751H11.485C12.7199 78.751 13.9547 78.257 14.9426 77.5161C15.6836 76.5282 16.1775 75.0463 16.1775 73.8115C16.1775 72.5766 15.9305 71.0947 14.9426 70.1068C13.9547 69.119 12.7199 68.625 11.485 68.625ZM14.6957 75.7873C14.6957 76.2812 14.4487 76.5282 13.9547 77.0221C13.7078 77.2691 13.2138 77.5161 12.7199 77.7631C12.2259 78.01 11.485 78.01 10.991 78.01H9.01524V69.6129H10.991C11.485 69.6129 12.2259 69.6129 12.7199 69.8599C13.7078 70.1068 14.4487 70.8478 14.6957 71.8357C15.1896 73.0705 15.1896 74.3054 14.6957 75.7873Z" fill="white"/>
<path d="M22.8454 72.3316C22.3514 72.0847 22.1044 71.8377 21.6105 71.5907C21.1165 71.3438 20.6226 71.3438 20.1286 71.3438C19.6347 71.3438 19.1407 71.3438 18.6468 71.5907C18.1528 71.8377 17.9059 72.0847 17.6589 72.3316C17.4119 72.8256 17.1649 73.3195 17.1649 73.5665C16.918 74.0605 16.918 74.5544 16.918 75.0484C16.918 75.5423 16.918 76.0363 17.1649 76.5302C17.4119 77.0242 17.4119 77.5181 17.9059 77.7651C18.1528 78.0121 18.6468 78.506 18.8938 78.506C19.3877 79 19.8817 79 20.3756 79C20.8696 79 21.3635 79 21.8575 78.753C22.5984 78.259 23.3393 77.5181 23.5863 76.7772C23.8333 76.2832 23.8333 75.7893 23.8333 75.2953C23.8333 74.8014 23.8333 74.3074 23.5863 73.8135C23.3393 73.3195 23.0923 72.8256 22.8454 72.3316ZM22.5984 76.2832C22.5984 76.5302 22.3514 77.0242 22.1044 77.2711C21.8575 77.5181 21.6105 77.7651 21.3635 78.0121C21.1165 78.259 20.6226 78.259 20.3756 78.259C19.8817 78.259 19.6347 78.259 19.3877 78.0121C19.1407 77.7651 18.8938 77.5181 18.6468 77.2711C18.3998 77.0242 18.3998 76.5302 18.1528 76.2832C18.1528 75.7893 17.9059 75.5423 17.9059 75.0484C17.9059 74.5544 17.9059 74.3074 18.1528 73.8135C18.1528 73.5665 18.3998 73.0726 18.6468 72.8256C18.8938 72.5786 19.1407 72.3317 19.3877 72.0847C19.6347 71.8377 20.1286 71.8377 20.6226 71.8377C21.1165 71.8377 21.3635 71.8377 21.6105 72.0847C21.6105 72.5786 22.1044 72.8256 22.1044 73.0726C22.3514 73.3196 22.3514 73.8135 22.5984 74.0605C22.5984 74.5544 22.8454 74.8014 22.8454 75.2953C22.8454 75.5423 22.8454 76.0363 22.5984 76.2832Z" fill="white"/>
<path d="M29.7616 77.0225C29.7616 77.2695 29.5146 77.5165 29.2676 77.7634C29.0206 78.0104 28.7737 78.0104 28.5267 78.2574C28.2797 78.2574 28.0327 78.5044 27.7858 78.5044C27.2918 78.5044 27.0448 78.5044 26.7979 78.2574C26.5509 78.0104 26.3039 77.7634 26.057 77.5165C25.81 77.2695 25.81 76.7755 25.563 76.5286C25.563 76.0346 25.316 75.7876 25.316 75.2937C25.316 74.7997 25.316 74.5528 25.563 74.0588C25.563 73.5649 25.81 73.3179 26.057 73.0709C26.3039 72.824 26.5509 72.577 26.7979 72.33C27.0448 72.083 27.5388 72.083 27.7858 72.083C28.2797 72.083 28.7737 72.33 29.0206 72.577C29.2676 73.0709 29.5146 73.5649 29.7616 74.0588H30.5025C30.5025 73.3179 30.0085 72.577 29.5146 72.083C29.0206 71.5891 28.2797 71.3421 27.5388 71.5891C27.0448 71.5891 26.5509 71.5891 26.057 71.8361C25.563 72.083 25.316 72.33 25.069 72.577C24.8221 72.8239 24.5751 73.3179 24.3281 73.8118C24.5751 74.3058 24.5751 74.7997 24.5751 75.2937C24.5751 75.7876 24.5751 76.2816 24.8221 76.7755C25.0691 77.7634 25.563 78.5044 26.5509 78.7513C27.0448 78.9983 27.5388 78.9983 28.0327 78.9983C28.7737 78.9983 29.5146 78.7513 30.0085 78.2574C30.5025 77.7634 30.7495 77.0225 30.9964 76.2816H30.2555C30.0085 76.5286 29.7616 76.7755 29.7616 77.0225Z" fill="white"/>
<path d="M33.466 69.3672H32.7251V71.59H31.4902V72.3309H32.7251V77.2704C32.7251 77.7643 32.7251 78.2583 32.9721 78.5053C33.2191 78.7522 33.713 78.9992 34.207 78.7522H34.9479V78.0113H34.207C33.96 78.0113 33.713 77.7643 33.713 77.7643C33.713 77.5174 33.466 77.2704 33.713 77.0234V72.0839H35.1949V71.343H33.713V69.3672H33.466Z" fill="white"/>
<path d="M41.6149 72.3316C41.3679 72.0847 40.874 71.5907 40.627 71.5907C40.133 71.3438 39.6391 71.3438 39.1451 71.3438C38.6512 71.3438 38.1572 71.3438 37.6633 71.5907C37.1693 71.8377 36.9224 72.0847 36.6754 72.3316C36.4284 72.8256 36.1815 73.0726 35.9345 73.5665C35.6875 74.0605 35.6875 74.5544 35.6875 75.0484C35.6875 75.5423 35.6875 76.0363 35.9345 76.5302C36.1815 77.0242 36.1814 77.5181 36.6754 77.7651C36.9224 78.0121 37.4163 78.506 37.6633 78.506C38.1572 78.753 38.6512 78.753 39.1451 78.753C39.6391 78.753 40.133 78.753 40.627 78.506C41.1209 78.259 41.3679 78.0121 41.6149 77.7651C41.8619 77.5181 42.1088 77.0242 42.3558 76.5302C42.6028 76.0363 42.6028 75.5423 42.6028 75.0484C42.6028 74.5544 42.6028 74.0605 42.3558 73.5665C42.1088 73.3195 41.8619 72.8256 41.6149 72.3316ZM41.3679 76.2832C41.3679 76.5302 41.1209 77.0242 40.874 77.2711C40.627 77.5181 40.38 77.7651 40.133 78.0121C39.8861 78.259 39.3921 78.259 39.1451 78.259C38.6512 78.259 38.4042 78.259 38.1572 78.0121C37.9103 77.7651 37.6633 77.5181 37.4163 77.2711C37.1693 77.0242 37.1693 76.5302 36.9224 76.2832C36.9224 75.7893 36.6754 75.5423 36.6754 75.0484C36.6754 74.5544 36.6754 74.3074 36.9224 73.8135C36.9224 73.5665 37.1693 73.0726 37.4163 72.8256C37.6633 72.5786 37.9103 72.3317 38.1572 72.0847C38.4042 71.8377 38.8982 71.8377 39.3921 71.8377C39.8861 71.8377 40.133 71.8377 40.38 72.0847C40.627 72.3317 40.874 72.5786 41.1209 72.8256C41.3679 73.0726 41.3679 73.5665 41.6149 73.8135C41.6149 74.3074 41.8619 74.5544 41.8619 75.0484C41.6149 75.5423 41.6149 76.0363 41.3679 76.2832Z" fill="white"/>
<path d="M47.2955 71.3438C46.8016 71.3438 46.0607 71.3438 45.5667 71.8377C45.0728 72.0847 44.8258 72.5786 44.5788 73.3196V71.5907H43.8379V79H44.8258V75.0484C44.8258 74.8014 44.8258 74.3074 45.0728 74.0605C45.3197 73.8135 45.3197 73.5665 45.5667 73.3196C45.8137 73.0726 46.0607 72.8256 46.3076 72.8256C46.5546 72.5786 47.0486 72.5786 47.2955 72.5786V71.3438Z" fill="white"/>
<path d="M50.9985 68.625L47.0469 78.751H48.0348L49.2696 75.5403H53.7152L54.9501 78.751H55.938L51.9864 68.625H50.9985ZM49.5166 74.7994L51.4924 69.6129L53.4682 74.7994H49.5166Z" fill="white"/>
<path d="M57.9156 68.625H56.9277V78.751H57.9156V68.625Z" fill="white"/>
</svg>
