<svg width="33" height="33" viewBox="0 0 33 33" fill="none" xmlns="http://www.w3.org/2000/svg">
<path d="M14.1 19.9C16.1 18.7 18.1 17.6 20.1 16.4C18.1 15.2 16.1 14.1 14.1 12.9C14.1 15.2 14.1 17.5 14.1 19.9Z" fill="white"/>
<path d="M28.3 0C20.3 0 12.4 0 4.5 0C1.8 0 0 1.8 0 4.5C0 8.5 0 12.4 0 16.4C0 20.4 0 24.4 0 28.4C0 31 1.8 32.9 4.4 32.9C12.4 32.9 20.4 32.9 28.3 32.9C31 32.9 32.7 31.1 32.7 28.5C32.7 20.5 32.7 12.5 32.7 4.5C32.8 1.8 30.9 0 28.3 0ZM27.7 21.1C27.6 21.9 27.4 22.6 26.9 23.2C26.5 23.6 26 24 25.4 24.1C24.7 24.2 23.9 24.3 23.1 24.4C21.6 24.5 20.1 24.5 18.4 24.6C17.6 24.6 16.8 24.7 15.9 24.7C13.7 24.6 11 24.5 8.4 24.3C7.9 24.3 7.3 24.2 6.8 24C6.6 23.9 6.5 23.8 6.3 23.7C5.7 23.2 5.3 22.7 5.2 21.9C4.8 20.3 4.8 18.7 4.8 17.1C4.8 15.3 4.8 13.5 5.1 11.8C5.2 11.2 5.3 10.6 5.6 10.1C5.7 10 5.8 9.8 5.9 9.7C6.3 9.3 6.7 9 7.2 8.9C7.3 8.9 7.4 8.8 7.5 8.8C9 8.5 10.6 8.5 12.2 8.4C14 8.3 15.7 8.3 17.5 8.3C19.4 8.3 21.2 8.4 23.1 8.5C23.8 8.5 24.6 8.6 25.3 8.8C25.7 8.9 26.1 9 26.4 9.2C26.6 9.3 26.8 9.5 26.9 9.6C27.1 9.8 27.2 10 27.3 10.2C27.4 10.4 27.5 10.7 27.6 10.9C27.8 11.9 27.9 13 28 14.1C28.1 16.4 28 18.7 27.7 21.1Z" fill="white"/>
</svg>
