<?xml version="1.0" standalone="no"?>
<!DOCTYPE svg PUBLIC "-//W3C//DTD SVG 20010904//EN"
 "http://www.w3.org/TR/2001/REC-SVG-20010904/DTD/svg10.dtd">
<svg version="1.0" xmlns="http://www.w3.org/2000/svg"
 width="135.000000pt" height="135.000000pt" viewBox="0 0 135.000000 135.000000"
 preserveAspectRatio="xMidYMid meet">
<metadata>
Created by potrace 1.14, written by Peter Selinger 2001-2017
</metadata>
<g transform="translate(0.000000,135.000000) scale(0.100000,-0.100000)"
fill="#000000" stroke="none">
<path d="M475 1331 c-22 -11 -56 -22 -76 -26 -46 -7 -84 -36 -109 -83 -10 -21
-30 -47 -44 -60 -14 -13 -28 -40 -31 -60 -3 -20 -10 -44 -16 -52 -28 -44 -49
-99 -49 -132 0 -21 -10 -56 -21 -78 -24 -46 -22 -118 4 -148 8 -9 17 -41 19
-70 4 -38 12 -60 30 -80 14 -15 29 -40 32 -57 10 -40 50 -92 78 -101 13 -4 42
-22 66 -40 61 -46 137 -62 194 -41 24 10 55 27 70 39 l27 23 6 472 7 472 -27
17 c-40 26 -112 29 -160 5z m136 -37 c9 -11 2 -25 -36 -69 -27 -33 -54 -55
-63 -53 -9 2 -22 24 -31 50 -13 44 -13 49 3 67 28 31 103 34 127 5z m-142 -80
c13 -30 21 -58 18 -61 -6 -6 -156 23 -165 32 -10 9 19 51 46 68 15 9 39 17 53
17 21 0 29 -8 48 -56z m151 1 c0 -28 -5 -37 -31 -50 -17 -9 -33 -14 -35 -12
-5 4 56 97 63 97 2 0 3 -16 3 -35z m-287 -87 c11 -19 14 -35 9 -40 -11 -11
-92 -31 -99 -25 -6 7 17 60 34 79 23 25 36 22 56 -14z m102 10 l40 -11 -38
-13 c-44 -16 -80 -6 -97 27 -11 20 -10 21 22 14 18 -4 51 -11 73 -17z m183
-10 c1 -13 0 -33 -3 -46 -5 -22 -6 -22 -40 10 -36 32 -36 42 0 51 37 9 41 7
43 -15z m-114 -33 c-1 -6 -5 -32 -8 -60 -4 -27 -9 -63 -12 -79 -6 -29 -7 -29
-21 -10 -20 27 -63 111 -63 124 0 6 15 17 33 25 35 16 73 15 71 0z m116 -77
c0 -10 -3 -18 -7 -18 -5 0 -24 -14 -43 -30 -19 -16 -41 -35 -48 -41 -26 -22
-32 5 -18 85 7 43 19 82 26 86 15 10 90 -58 90 -82z m-268 46 c10 -9 -24 -84
-38 -84 -7 0 -24 15 -39 32 l-28 33 44 11 c56 15 55 15 61 8z m66 -77 c17 -35
32 -66 32 -69 0 -13 -92 27 -101 43 -10 20 8 89 24 89 7 0 27 -28 45 -63z
m-127 -19 c7 -14 0 -23 -35 -47 -56 -39 -70 -42 -69 -13 2 50 4 58 24 91 l20
33 25 -23 c14 -13 30 -32 35 -41z m319 -47 l0 -59 -40 12 c-64 19 -66 28 -14
69 26 21 49 37 51 37 1 0 3 -27 3 -59z m-165 -41 c11 -21 9 -29 -19 -72 -17
-26 -34 -48 -37 -48 -7 0 -49 146 -49 167 0 19 92 -22 105 -47z m-103 -40 c10
-47 17 -88 16 -92 -2 -4 -40 21 -85 55 l-81 63 51 32 c29 17 58 31 66 29 9 -1
21 -32 33 -87z m241 14 c15 -3 27 -9 28 -13 7 -53 8 -52 -39 -18 -50 36 -63
52 -36 44 11 -4 31 -9 47 -13z m-314 -65 c45 -34 81 -63 79 -64 -5 -6 -138
-35 -158 -35 -23 0 -50 65 -43 105 6 31 20 55 33 55 4 0 44 -27 89 -61z m215
44 c2 -10 7 -40 11 -68 3 -27 9 -60 12 -72 7 -29 -9 -29 -63 0 -49 26 -50 44
-8 110 32 51 40 56 48 30z m81 -26 c44 -36 50 -46 45 -71 -3 -16 -19 -39 -37
-53 -43 -33 -46 -29 -68 125 -3 23 -2 42 2 42 4 0 31 -19 58 -43z m-205 -119
c0 -5 0 -23 0 -42 0 -48 -21 -51 -97 -14 -35 18 -58 35 -51 37 83 28 149 36
148 19z m103 -24 l38 -21 -43 -16 c-73 -27 -83 -26 -83 8 -1 68 13 72 88 29z
m143 -39 c0 -30 -3 -55 -6 -55 -9 0 -62 57 -62 65 0 8 52 45 63 45 3 0 5 -25
5 -55z m-279 -39 c8 -7 -87 -45 -100 -40 -18 7 -47 64 -47 93 0 20 4 19 73
-15 39 -20 73 -37 74 -38z m179 17 c-3 -10 -8 -36 -12 -58 -11 -69 -16 -70
-65 -20 -24 25 -43 49 -43 53 2 9 83 41 107 41 13 1 17 -4 13 -16z m66 -30
c43 -45 44 -69 6 -89 -15 -8 -28 -12 -28 -9 0 3 -8 1 -18 -4 -33 -18 -39 0
-24 72 8 37 18 67 21 67 4 0 23 -17 43 -37z m-234 -80 c-5 -42 -10 -78 -12
-80 -2 -2 -15 2 -29 8 -25 12 -57 62 -57 92 0 12 77 55 101 57 3 0 1 -35 -3
-77z m122 -35 c0 -10 -47 -33 -83 -42 -28 -7 -28 -6 -23 36 2 24 5 59 5 78 l1
34 50 -49 c28 -27 50 -53 50 -57z m145 -15 c-2 -42 -4 -42 -59 -15 l-39 19 44
16 c24 8 47 16 50 16 3 1 5 -16 4 -36z m-123 -45 l1 -33 4 33 c2 17 8 32 13
32 15 0 100 -43 100 -50 0 -4 -9 -15 -19 -24 -20 -18 -91 -39 -91 -27 0 3 -13
6 -29 7 -35 1 -106 43 -94 55 10 10 82 37 101 38 7 1 13 -13 14 -31z"/>
<path d="M724 1336 c-18 -8 -35 -20 -39 -27 -5 -7 -9 -222 -11 -478 l-2 -466
30 -27 c64 -58 161 -63 243 -12 26 16 59 35 74 43 43 22 70 52 82 90 6 20 22
47 35 61 27 29 44 71 44 106 0 14 12 46 26 70 21 36 26 54 21 90 -2 25 -11 53
-20 62 -8 9 -17 43 -19 75 -3 38 -12 68 -27 87 -12 16 -24 44 -28 62 -8 44
-21 67 -55 101 -15 16 -28 34 -28 41 0 28 -61 75 -113 86 -28 6 -59 17 -68 26
-24 21 -107 27 -145 10z m124 -36 c38 -23 38 -24 12 -83 -32 -72 -35 -71 -98
15 -43 59 -43 63 6 78 40 12 44 12 80 -10z m144 -57 c24 -21 42 -53 34 -60 -6
-6 -124 -32 -148 -33 -23 0 -23 11 4 72 21 49 22 50 56 44 19 -3 43 -13 54
-23z m-223 -42 c17 -24 29 -46 27 -48 -2 -2 -20 2 -39 11 -33 13 -36 17 -34
55 2 45 1 45 46 -18z m241 -49 c0 -16 -25 -40 -48 -45 -13 -3 -40 2 -60 10
l-37 16 55 12 c70 16 90 17 90 7z m51 -5 c20 -15 39 -51 39 -72 0 -13 -7 -15
-33 -11 -71 11 -82 27 -49 71 20 28 22 29 43 12z m-287 -7 c34 -13 33 -20 -13
-52 l-38 -27 2 42 c2 23 3 43 4 45 2 5 20 2 45 -8z m132 -42 c19 -6 36 -18 39
-26 3 -8 -10 -42 -30 -74 -19 -33 -35 -65 -36 -71 -1 -33 -18 40 -24 107 -8
84 -7 85 51 64z m-83 -5 c3 -5 8 -39 12 -78 4 -38 9 -73 11 -76 2 -4 -2 -9
-10 -12 -14 -6 -116 81 -116 99 0 12 72 73 87 74 6 0 14 -3 16 -7z m248 -50
c40 -8 76 -54 85 -109 3 -24 4 -48 1 -51 -10 -9 -107 58 -107 74 0 9 12 27 26
40 14 13 24 26 22 29 -3 2 -15 -7 -28 -21 -32 -34 -54 -32 -68 8 -17 46 -16
50 14 43 15 -4 39 -10 55 -13z m-74 -51 c7 -30 -16 -55 -64 -70 -20 -6 -39
-10 -41 -8 -2 3 14 34 35 70 34 60 39 65 51 49 7 -10 15 -28 19 -41z m-218
-56 c24 -24 39 -46 33 -49 -5 -4 -28 -9 -51 -13 l-42 -7 2 57 c1 31 5 56 8 56
4 0 26 -20 50 -44z m206 -92 c-13 -47 -26 -88 -28 -90 -2 -3 -19 18 -37 45
-39 61 -34 84 23 110 67 31 68 30 42 -65z m105 54 c27 -18 50 -35 49 -38 0 -8
-159 -123 -164 -119 -7 8 38 174 49 181 15 10 10 12 66 -24z m-271 -32 c-17
-17 -83 -66 -89 -66 -4 0 -7 10 -6 23 1 16 11 25 36 34 35 12 67 16 59 9z m21
-33 c-1 -36 -27 -154 -36 -163 -6 -6 -24 0 -46 15 -53 36 -48 71 18 124 55 45
64 49 64 24z m59 -33 c17 -28 31 -58 31 -68 0 -17 -92 -77 -103 -66 -3 3 -1
19 3 35 5 16 12 53 15 82 7 49 12 67 20 67 2 0 17 -23 34 -50z m282 18 c16
-30 14 -70 -6 -108 -15 -30 -20 -32 -53 -26 -21 3 -61 13 -90 21 l-54 16 84
60 c45 32 88 59 95 59 7 0 18 -10 24 -22z m-121 -138 c85 -21 99 -29 94 -57
-6 -30 -22 -62 -40 -81 -11 -10 -21 -9 -59 9 -25 12 -45 22 -45 24 0 2 30 17
66 35 36 17 63 34 61 37 -3 3 -36 -9 -73 -27 -37 -17 -70 -28 -75 -23 -10 10
-20 83 -13 95 3 5 13 7 22 4 10 -3 37 -10 62 -16z m-99 -17 c0 -16 2 -36 4
-45 4 -24 -21 -23 -81 2 l-47 21 44 24 c60 33 79 32 80 -2z m-198 -1 c31 -25
30 -35 -6 -70 l-33 -32 0 60 c-1 64 5 70 39 42z m129 -63 c29 -11 55 -23 57
-25 7 -7 -81 -94 -94 -94 -12 0 -38 117 -29 131 7 12 6 12 66 -12z m-73 -55
c8 -37 10 -69 5 -73 -5 -4 -30 -2 -56 6 -38 11 -48 19 -48 36 0 19 64 97 80
97 4 0 12 -30 19 -66z m231 -4 c22 -11 40 -27 40 -36 0 -29 -30 -74 -60 -89
-29 -15 -30 -15 -31 7 0 13 -2 49 -5 81 -6 65 -3 67 56 37z m-80 -27 c1 -21 3
-55 6 -75 l6 -38 -48 21 c-27 11 -52 26 -56 32 -7 12 67 97 84 97 4 0 8 -17 8
-37z m-190 -84 c-55 -25 -60 -24 -60 9 0 40 6 42 57 25 l45 -15 -42 -19z m60
-50 l0 -52 -36 6 c-20 4 -47 16 -60 28 l-24 22 48 23 c69 33 72 32 72 -27z
m84 30 c53 -23 51 -35 -8 -63 -57 -27 -68 -22 -65 27 4 67 4 67 73 36z"/>
<path d="M249 179 c-5 -68 -4 -152 2 -160 10 -17 91 -2 113 21 27 27 27 94 0
121 -25 24 -114 38 -115 18z m99 -34 c11 -14 19 -33 17 -43 -2 -9 -4 -25 -4
-34 -1 -19 -25 -35 -64 -42 -22 -4 -28 0 -31 17 -6 27 -6 97 0 115 7 22 61 14
82 -13z"/>
<path d="M976 182 c-15 -25 -66 -165 -61 -170 3 -3 11 8 17 26 11 27 16 31 51
30 34 0 40 -4 49 -29 5 -16 14 -29 19 -29 8 0 -5 38 -50 153 -11 28 -16 32
-25 19z m27 -64 l16 -38 -34 0 c-23 0 -33 4 -30 13 28 80 26 79 48 25z"/>
<path d="M1079 184 c-5 -48 -3 -167 3 -170 4 -3 8 10 9 28 2 63 -1 141 -6 146
-3 3 -5 1 -6 -4z"/>
<path d="M665 161 c3 -5 -2 -16 -10 -24 -10 -10 -11 -17 -4 -19 6 -2 13 -22
14 -43 1 -22 3 -46 4 -52 1 -15 31 -18 31 -3 0 6 -4 10 -8 10 -5 0 -9 20 -9
45 -1 32 4 48 16 55 14 8 14 9 -3 10 -12 0 -16 5 -12 15 3 9 0 15 -10 15 -8 0
-13 -4 -9 -9z"/>
<path d="M416 124 c-22 -21 -20 -77 2 -97 35 -32 92 -14 92 28 0 34 18 32 22
-2 6 -52 88 -57 96 -7 3 16 1 15 -13 -4 -24 -33 -57 -25 -69 16 -8 28 -6 36
12 54 21 21 22 21 42 3 11 -10 22 -16 25 -13 3 3 -3 12 -14 22 -23 21 -67 13
-82 -16 -10 -18 -11 -18 -30 6 -23 29 -60 34 -83 10z m70 -16 c13 -39 13 -47
-5 -69 -15 -18 -21 -20 -39 -10 -21 11 -27 28 -22 61 6 42 54 55 66 18z"/>
<path d="M743 132 c-37 -23 -31 -90 10 -116 26 -16 71 12 75 47 6 54 -44 95
-85 69z m67 -32 c10 -25 10 -34 -4 -55 -29 -44 -69 -22 -69 36 0 54 53 68 73
19z"/>
<path d="M885 130 c-3 -5 -12 -7 -20 -4 -12 5 -14 -6 -13 -55 2 -67 18 -86 18
-21 0 30 6 45 27 65 22 19 24 25 11 25 -9 0 -19 -4 -23 -10z"/>
</g>
</svg>
