<svg width="33" height="33" viewBox="0 0 33 33" fill="none" xmlns="http://www.w3.org/2000/svg">
<path d="M0 16.368C0 12.395 0 8.44032 0 4.46733C0 1.79425 1.79323 0 4.48307 0C12.4428 0 20.3842 0 28.344 0C30.9789 0 32.7904 1.79425 32.7904 4.4124C32.8087 12.395 32.8087 20.3959 32.7904 28.3785C32.7904 31.015 30.9972 32.7909 28.344 32.8092C20.3659 32.8275 12.3696 32.8275 4.39157 32.8092C1.77493 32.8092 0 30.9783 0 28.3419C0 24.3689 0 20.3593 0 16.368ZM21.2076 16.4962C21.2076 15.2329 21.2442 14.0794 21.171 12.9443C21.1528 12.7429 20.8051 12.4133 20.5855 12.395C19.8353 12.3218 19.0851 12.3767 18.3531 12.3767C18.0969 10.7838 18.2982 10.5641 19.7255 10.5458C20.0549 10.5458 20.4025 10.5824 20.7319 10.5275C20.9149 10.4909 21.1893 10.2712 21.1893 10.1247C21.2259 8.91634 21.2076 7.70797 21.2076 6.42636C20.0366 6.42636 19.0119 6.38974 17.9872 6.42636C15.3705 6.55452 13.9433 8.03753 13.8701 10.674C13.8518 11.2049 13.8701 11.7542 13.8701 12.3218C13.0283 12.3584 12.3513 12.395 11.656 12.4316C11.656 13.8231 11.656 15.123 11.656 16.5145C12.3879 16.5145 13.0832 16.5145 13.8152 16.5145C13.8335 16.8806 13.8701 17.137 13.8701 17.4116C13.8701 20.1213 13.8884 22.831 13.8518 25.559C13.8518 26.2364 14.0713 26.4927 14.7484 26.4561C15.6267 26.4195 16.5233 26.4195 17.4016 26.4561C18.0786 26.4927 18.2982 26.2364 18.2799 25.559C18.2433 22.8676 18.2616 20.1945 18.2616 17.5031C18.2616 17.1919 18.2982 16.8623 18.3165 16.5145C19.3046 16.4962 20.1829 16.4962 21.2076 16.4962Z" fill="white"/>
</svg>
