<svg width="56" height="68" viewBox="0 0 56 68" fill="none" xmlns="http://www.w3.org/2000/svg">
<path d="M10.5799 48.7863C10.5799 48.7863 17.4936 56.3285 25.0357 50.8814C25.6642 50.4624 26.2927 49.8339 26.9213 49.4149L27.5498 2.06697C26.9213 1.64796 26.2927 1.22895 25.8737 1.01945C22.9407 -0.656585 19.3791 -0.237577 16.8651 2.06697C16.8651 2.06697 10.1609 1.43845 8.69441 7.72357C6.18037 9.1901 4.71384 11.9136 4.92334 14.8467C2.6188 17.1512 1.57128 20.5033 2.19979 23.6459C-0.733264 26.5789 -0.733264 31.3975 2.19979 34.1211C1.36178 37.0541 2.6188 39.9872 4.92334 41.6632C4.92334 41.6632 5.34235 47.7388 10.5799 48.7863ZM11.418 18.6178L12.8845 14.8467H13.094C13.3035 14.8467 13.3035 14.8467 13.513 14.8467L17.2841 21.5508C17.0746 21.7603 17.0746 21.7603 16.8651 21.9698L11.837 19.8748C12.0465 19.4558 11.837 19.0368 11.418 18.6178ZM11.6275 20.5033L16.6556 22.5983V23.0174C16.6556 23.6459 16.8651 24.2744 17.4936 24.4839L13.932 29.931H13.7225L11.2085 20.9223C11.418 20.9223 11.6275 20.7128 11.6275 20.5033ZM13.513 32.864C13.7225 32.864 14.1415 32.6545 14.351 32.445L19.3791 35.1686V35.5876L13.513 37.4731C13.3035 37.2636 13.094 37.0541 13.094 37.0541L13.513 32.864ZM14.77 31.8165C14.77 31.607 14.77 31.607 14.77 31.3975C14.77 30.9785 14.5605 30.769 14.351 30.35L18.1221 24.6934C18.3316 24.6934 18.3316 24.6934 18.5411 24.6934L20.0076 33.9116C19.7981 33.9116 19.5886 34.1211 19.5886 34.3306L14.77 31.8165ZM18.5411 21.1318C18.3316 21.1318 18.1221 21.1318 18.1221 21.3413L14.351 14.4277C14.5605 14.2182 14.77 13.7992 14.77 13.3802C14.77 13.3802 14.77 13.3802 14.77 13.1707L18.9601 11.7041C19.1696 11.9136 19.3791 12.3327 19.7981 12.3327L18.5411 21.1318ZM18.5411 11.0756L14.351 12.5422C14.1415 12.1232 13.7225 11.9136 13.3035 11.9136C13.094 11.9136 12.8845 11.9136 12.675 12.1232L10.5799 9.1901L18.5411 11.0756ZM10.7895 18.4083H10.5799C10.3704 18.4083 9.95144 18.4083 9.74193 18.6178L6.80888 15.2657L12.0465 14.0087C12.0465 14.4277 12.256 14.4277 12.4655 14.6372L10.7895 18.4083ZM10.5799 21.1318L12.675 30.1405C12.4655 30.1405 12.4655 30.35 12.4655 30.5595L4.08533 24.2744L9.74193 20.7128C9.95144 20.9223 10.1609 21.1318 10.5799 21.1318ZM12.8845 32.6545L12.256 37.0541C11.837 37.0541 11.6275 37.2636 11.418 37.6826L4.08533 34.1211L12.256 32.2355C12.4655 32.445 12.675 32.6545 12.8845 32.6545ZM12.675 39.5682H12.8845L17.4936 44.1773C17.2841 44.3868 17.2841 44.5963 17.2841 45.0153V45.2248L11.837 47.3198L12.675 39.5682ZM12.256 47.9483L17.7031 45.8533C17.9126 46.0628 18.1221 46.2723 18.5411 46.2723L18.7506 51.3004C16.0271 50.8814 13.932 49.6244 12.256 47.9483ZM18.1221 43.5487L13.513 38.9397C13.7225 38.7302 13.7225 38.5206 13.7225 38.1016L19.5886 36.2161C19.7981 36.4256 19.7981 36.6351 20.0076 36.6351L18.5411 43.3392C18.3316 43.5487 18.1221 43.5487 18.1221 43.5487ZM24.8262 48.7863C23.3597 50.2529 21.2647 51.3004 18.9601 51.3004V46.2723C19.1696 46.2723 19.3791 46.0628 19.5886 45.8533L24.8262 48.3673V48.7863ZM24.8262 47.5293L19.7981 45.2248V45.0153L24.8262 43.5487V47.5293ZM24.8262 42.9202L19.7981 44.3868C19.5886 44.1773 19.3791 43.9678 19.1696 43.7582L20.6361 37.0541C20.8456 37.0541 21.0551 37.0541 21.0551 36.8446L24.8262 40.6157V42.9202ZM24.8262 39.5682L21.4742 36.4256C21.6837 36.2161 21.6837 35.7971 21.6837 35.5876C21.6837 35.3781 21.6837 35.1686 21.6837 35.1686L24.8262 33.0735V39.5682ZM25.0357 32.026L21.6837 34.5401C21.4742 34.3306 21.0551 34.1211 20.8456 34.1211L19.3791 24.9029C19.5886 24.9029 19.7981 24.6934 19.7981 24.6934L25.2452 29.093L25.0357 32.026ZM20.0076 22.1793L25.0357 18.1988V24.2744L20.2171 23.0174V22.8079C20.2171 22.8079 20.2171 22.5984 20.0076 22.1793ZM20.2171 23.8554L25.2452 25.1124V28.0455L20.2171 24.0649C20.0076 24.0649 20.0076 24.0649 20.2171 23.8554ZM25.2452 17.3608L19.7981 21.5508C19.5886 21.3413 19.1696 21.1318 18.9601 21.1318L20.4266 12.5422C20.8456 12.5422 21.0551 12.3327 21.4742 12.1232L25.6642 15.6847L25.2452 17.3608ZM21.4742 11.4946C21.4742 11.2851 21.6837 11.0756 21.6837 10.8661L25.4547 9.81861L25.2452 14.6372L21.4742 11.4946ZM25.2452 8.98059L21.2646 10.2376L21.4742 10.0281L25.6642 4.37151L25.2452 8.98059ZM25.8737 3.11449L20.6361 9.3996C20.4266 9.1901 20.2171 9.1901 19.7981 9.1901H19.5886L17.7031 3.9525C17.7031 3.9525 20.4266 -0.447081 25.8737 3.11449ZM16.8651 4.162C16.8651 4.162 17.0746 4.162 16.8651 4.162L19.1696 9.3996C18.9601 9.60911 18.9601 9.81861 18.7506 10.2376L10.3704 8.35208C10.999 5.41903 13.932 3.53349 16.8651 4.162ZM9.95144 9.1901L12.0465 12.5422C11.837 12.7517 11.837 13.1707 11.837 13.3802L6.59937 14.6372C6.59937 12.3327 7.8564 10.2376 9.95144 9.1901ZM6.38987 15.8942L9.32292 19.2463C9.32292 19.4558 9.32292 19.6653 9.32292 19.8748C9.32292 20.0843 9.32292 20.0843 9.32292 20.2938L3.87582 23.6459C3.24731 20.7128 4.08533 17.7798 6.38987 15.8942ZM3.03781 25.1124C3.24731 24.9029 3.24731 24.9029 3.45682 24.6934L12.0465 30.9785C12.0465 31.188 12.0465 31.188 12.0465 31.3975L3.66632 33.283C1.36178 31.188 0.942768 27.4169 3.03781 25.1124ZM3.66632 34.5401L11.2085 38.3111L6.38987 40.6157C4.29483 39.3587 3.24731 37.0541 3.66632 34.5401ZM11.418 38.9397C11.6275 39.1492 11.6275 39.1492 11.837 39.3587L10.999 47.1103C10.999 47.1103 6.80888 46.6913 6.38987 41.2442L11.418 38.9397Z" fill="url(#paint0_linear_982_5832)"/>
<path d="M53.9467 24.0646C54.3657 20.9221 53.5277 17.57 51.2232 15.2655C51.4327 12.3324 49.9661 9.81835 47.4521 8.14232C45.9856 1.8572 39.2814 2.27621 39.2814 2.27621C36.9769 -0.0283332 33.2058 -0.656845 30.2728 1.01919C29.6443 1.22869 29.0158 1.6477 28.3872 2.06671L28.1777 49.4146C28.8062 50.0431 29.4348 50.4621 30.0633 51.0906C37.6054 56.5377 44.519 49.2051 44.519 49.2051C49.5471 48.1576 50.1756 42.2915 50.1756 42.2915C52.6897 40.6154 53.9467 37.6824 53.3182 34.7493C56.6703 31.6068 56.8798 26.9977 53.9467 24.0646ZM52.2707 23.8551L46.8236 20.2935C46.8236 20.084 46.8236 20.084 46.8236 19.8745C46.8236 19.665 46.8236 19.4555 46.8236 19.246L49.9661 15.894C52.0612 17.989 52.8992 21.1316 52.2707 23.8551ZM36.1389 34.5398C35.9294 34.3303 35.9294 34.3303 35.7199 34.1208L37.3959 24.9026C37.6054 24.9026 37.6054 24.9026 37.8149 24.9026L41.3765 30.5592C41.167 30.7687 40.9575 31.1877 40.9575 31.3973C40.9575 31.6068 40.9575 31.6068 40.9575 31.8163L36.1389 34.5398ZM34.0438 36.4253L30.6918 39.5679V32.8638L33.8343 35.1683C33.8343 35.3778 33.8343 35.5873 33.8343 35.5873C33.8343 35.7968 33.8343 36.0063 34.0438 36.4253ZM30.6918 32.0258V29.0927L36.3484 24.6931C36.5579 24.9026 36.7674 24.9026 36.7674 24.9026L35.0914 34.1208C34.6724 34.1208 34.4629 34.3303 34.2533 34.5398L30.6918 32.0258ZM43.8905 14.8464C44.1 14.6369 44.3095 14.6369 44.3095 14.4274L49.5471 15.6845L46.4046 18.827C46.1951 18.6175 45.7761 18.6175 45.5666 18.6175H45.3571L43.8905 14.8464ZM44.7285 18.827C44.3095 19.0365 44.3095 19.4555 44.3095 19.8745V20.084L39.2814 22.1791C39.2814 21.9696 39.0719 21.7601 38.8624 21.7601L42.6335 15.0559C42.843 15.0559 42.843 15.0559 43.0525 15.0559H43.262L44.7285 18.827ZM43.681 12.1229C43.4715 12.1229 43.262 11.9134 43.0525 11.9134C42.6335 11.9134 42.005 12.1229 41.7955 12.5419L37.6054 10.8659L45.5666 9.18984L43.681 12.1229ZM41.586 13.3799C41.586 14.0084 41.7955 14.2179 42.005 14.6369L38.2339 21.3411C38.0244 21.3411 37.8149 21.1316 37.8149 21.1316L36.7674 12.3324C37.1864 12.1229 37.3959 11.9134 37.6054 11.7039L41.586 13.3799ZM36.5579 35.3778L41.586 32.6543C41.7955 32.8638 42.005 33.0733 42.424 33.0733L42.843 37.4729C42.6335 37.4729 42.6335 37.6824 42.424 37.8919L36.7674 35.7968V35.3778H36.5579ZM42.424 30.1402H42.2145L38.6529 24.6931C39.0719 24.2741 39.4909 23.8551 39.4909 23.2266V23.0171L44.519 20.9221C44.7285 21.1316 44.7285 21.1316 44.938 21.3411L42.424 30.1402ZM43.0525 32.8638C43.262 32.6543 43.4715 32.6543 43.681 32.4448L51.8517 34.5398L44.3095 38.1014C44.1 37.8919 43.8905 37.4729 43.4715 37.4729L43.0525 32.8638ZM43.4715 30.5592C43.4715 30.5592 43.262 30.3497 43.0525 30.3497L45.3571 21.3411C45.7761 21.3411 46.1951 21.1316 46.4046 20.9221L51.8517 24.4836L43.4715 30.5592ZM49.5471 14.8464L44.519 13.5894C44.519 13.1704 44.3095 12.9609 44.1 12.5419L46.4046 9.18984C48.4996 10.4469 49.7566 12.5419 49.5471 14.8464ZM45.9856 8.35182V8.56133L37.6054 10.2374C37.6054 10.0279 37.3959 9.60885 37.1864 9.60885L39.4909 4.16175C42.424 3.53323 45.3571 5.41877 45.9856 8.35182ZM38.6529 3.95224L36.3484 9.18984C36.1389 9.18984 36.1389 9.18984 35.9294 9.18984C35.7199 9.18984 35.3009 9.18984 35.0914 9.39934L30.4823 2.90472C36.1389 -0.447341 38.6529 3.95224 38.6529 3.95224ZM30.6918 4.16175L34.6724 9.81835L34.4629 10.0279L30.6918 8.77083V4.16175ZM30.6918 9.60885L34.4629 10.8659C34.4629 11.0754 34.4629 11.2849 34.6724 11.4944L30.6918 14.6369V9.60885ZM30.6918 15.475L34.8819 12.1229C35.0914 12.3324 35.5104 12.5419 35.7199 12.5419L36.7674 21.1316C36.3484 21.1316 36.1389 21.3411 35.9294 21.5506L30.6918 17.151V15.475ZM30.6918 18.1985L35.5104 22.3886C35.5104 22.5981 35.3009 22.8076 35.3009 23.0171V23.2266L30.4823 24.2741L30.6918 18.1985ZM30.6918 25.1121L35.7199 23.8551L35.9294 24.0646L30.6918 28.0452V25.1121ZM30.6918 40.4059L34.4629 36.8444C34.6724 36.8444 34.8819 37.0539 34.8819 37.0539L36.1389 43.758C35.9294 43.9675 35.7199 44.177 35.5104 44.3865L30.4823 42.92L30.6918 40.4059ZM30.6918 43.5485L35.5104 45.015C35.5104 45.015 35.5104 45.015 35.5104 45.2245L30.4823 47.3196L30.6918 43.5485ZM36.3484 51.3001C34.2533 51.3001 32.1583 50.2526 30.6918 48.7861V48.1576L35.9294 45.853C36.1389 46.0625 36.3484 46.272 36.5579 46.272L36.3484 51.3001ZM35.5104 36.8444C35.7199 36.8444 35.9294 36.6348 36.1389 36.4253L41.7955 38.5204C41.7955 38.7299 41.7955 39.1489 42.005 39.3584L37.3959 43.758C37.1864 43.758 36.9769 43.5485 36.7674 43.5485L35.5104 36.8444ZM36.9769 51.3001L37.1864 46.272C37.3959 46.272 37.8149 46.0625 38.0244 45.853L43.262 48.1576C41.586 49.8336 39.4909 50.8811 36.9769 51.3001ZM38.2339 45.2245C38.2339 45.015 38.2339 45.2245 38.2339 45.2245C38.2339 44.8055 38.2339 44.596 38.0244 44.3865L42.424 39.7774H42.843L43.4715 47.5291L38.2339 45.2245ZM44.519 47.3196L43.8905 39.5679C44.1 39.5679 44.3095 39.3584 44.3095 39.1489L49.1281 41.6629C48.4996 46.691 44.938 47.3196 44.519 47.3196ZM49.3376 41.0344L44.7285 38.7299L52.2707 34.9588C52.4802 37.2634 51.4327 39.7774 49.3376 41.0344ZM52.0612 33.7018L43.681 31.6068C43.681 31.3973 43.681 31.3973 43.681 31.1877L52.4802 25.1121C54.7847 27.4167 54.7847 30.9782 52.4802 33.2828C52.4802 33.4923 52.2707 33.4923 52.0612 33.7018Z" fill="url(#paint1_linear_982_5832)"/>
<path d="M9.74165 58.2139H6.80859V66.8035H9.74165C10.7892 66.8035 11.8367 66.3845 12.6747 65.756C13.3032 64.918 13.7222 63.661 13.7222 62.6134C13.7222 61.5659 13.5127 60.3089 12.6747 59.4709C11.8367 58.6329 10.7892 58.2139 9.74165 58.2139ZM12.4652 64.2895C12.4652 64.7085 12.2557 64.918 11.8367 65.337C11.6272 65.5465 11.2082 65.756 10.7892 65.9655C10.3702 66.175 9.74165 66.175 9.32264 66.175H7.64661V59.0519H9.32264C9.74165 59.0519 10.3702 59.0519 10.7892 59.2614C11.6272 59.4709 12.2557 60.0994 12.4652 60.9374C12.8842 61.9849 12.8842 63.0325 12.4652 64.2895Z" fill="#00827A"/>
<path d="M19.3797 61.3575C18.9606 61.148 18.7511 60.9385 18.3321 60.729C17.9131 60.5195 17.4941 60.5195 17.0751 60.5195C16.6561 60.5195 16.2371 60.5195 15.8181 60.729C15.3991 60.9385 15.1896 61.148 14.9801 61.3575C14.7706 61.7766 14.5611 62.1956 14.5611 62.4051C14.3516 62.8241 14.3516 63.2431 14.3516 63.6621C14.3516 64.0811 14.3516 64.5001 14.5611 64.9191C14.7706 65.3381 14.7706 65.7571 15.1896 65.9666C15.3991 66.1761 15.8181 66.5951 16.0276 66.5951C16.4466 67.0142 16.8656 67.0142 17.2846 67.0142C17.7036 67.0142 18.1226 67.0142 18.5416 66.8046C19.1702 66.3856 19.7987 65.7571 20.0082 65.1286C20.2177 64.7096 20.2177 64.2906 20.2177 63.8716C20.2177 63.4526 20.2177 63.0336 20.0082 62.6146C19.7987 62.1956 19.5892 61.7766 19.3797 61.3575ZM19.1702 64.7096C19.1702 64.9191 18.9606 65.3381 18.7511 65.5476C18.5416 65.7571 18.3321 65.9666 18.1226 66.1761C17.9131 66.3856 17.4941 66.3856 17.2846 66.3856C16.8656 66.3856 16.6561 66.3856 16.4466 66.1761C16.2371 65.9666 16.0276 65.7571 15.8181 65.5476C15.6086 65.3381 15.6086 64.9191 15.3991 64.7096C15.3991 64.2906 15.1896 64.0811 15.1896 63.6621C15.1896 63.2431 15.1896 63.0336 15.3991 62.6146C15.3991 62.4051 15.6086 61.9861 15.8181 61.7766C16.0276 61.5671 16.2371 61.3575 16.4466 61.148C16.6561 60.9385 17.0751 60.9385 17.4941 60.9385C17.9131 60.9385 18.1226 60.9385 18.3321 61.148C18.3321 61.5671 18.7511 61.7766 18.7511 61.9861C18.9606 62.1956 18.9606 62.6146 19.1702 62.8241C19.1702 63.2431 19.3797 63.4526 19.3797 63.8716C19.3797 64.0811 19.3797 64.5001 19.1702 64.7096Z" fill="#00827A"/>
<path d="M25.2458 65.3368C25.2458 65.5463 25.0363 65.7558 24.8268 65.9653C24.6173 66.1748 24.4078 66.1748 24.1983 66.3843C23.9888 66.3843 23.7793 66.5938 23.5698 66.5938C23.1508 66.5938 22.9413 66.5938 22.7318 66.3843C22.5223 66.1748 22.3128 65.9653 22.1032 65.7558C21.8937 65.5463 21.8937 65.1273 21.6842 64.9178C21.6842 64.4988 21.4747 64.2893 21.4747 63.8703C21.4747 63.4512 21.4747 63.2417 21.6842 62.8227C21.6842 62.4037 21.8937 62.1942 22.1032 61.9847C22.3128 61.7752 22.5223 61.5657 22.7318 61.3562C22.9413 61.1467 23.3603 61.1467 23.5698 61.1467C23.9888 61.1467 24.4078 61.3562 24.6173 61.5657C24.8268 61.9847 25.0363 62.4037 25.2458 62.8227H25.8743C25.8743 62.1942 25.4553 61.5657 25.0363 61.1467C24.6173 60.7277 23.9888 60.5182 23.3603 60.7277C22.9413 60.7277 22.5223 60.7277 22.1032 60.9372C21.6842 61.1467 21.4747 61.3562 21.2652 61.5657C21.0557 61.7752 20.8462 62.1942 20.6367 62.6132C20.8462 63.0322 20.8462 63.4512 20.8462 63.8703C20.8462 64.2893 20.8462 64.7083 21.0557 65.1273C21.2652 65.9653 21.6842 66.5938 22.5223 66.8033C22.9413 67.0128 23.3603 67.0128 23.7793 67.0128C24.4078 67.0128 25.0363 66.8033 25.4553 66.3843C25.8743 65.9653 26.0838 65.3368 26.2933 64.7083H25.6648C25.4553 64.9178 25.2458 65.1273 25.2458 65.3368Z" fill="#00827A"/>
<path d="M28.387 58.8428H27.7585V60.7283H26.7109V61.3568H27.7585V65.5469C27.7585 65.9659 27.7585 66.3849 27.968 66.5944C28.1775 66.8039 28.5965 67.0134 29.0155 66.8039H29.644V66.1754H29.0155C28.806 66.1754 28.5965 65.9659 28.5965 65.9659C28.5965 65.7564 28.387 65.5469 28.5965 65.3374V61.1473H29.8535V60.5188H28.5965V58.8428H28.387Z" fill="#00827A"/>
<path d="M35.3015 61.3575C35.092 61.148 34.673 60.729 34.4635 60.729C34.0445 60.5195 33.6255 60.5195 33.2065 60.5195C32.7875 60.5195 32.3685 60.5195 31.9495 60.729C31.5305 60.9385 31.321 61.148 31.1115 61.3575C30.9019 61.7766 30.6924 61.9861 30.4829 62.4051C30.2734 62.8241 30.2734 63.2431 30.2734 63.6621C30.2734 64.0811 30.2734 64.5001 30.4829 64.9191C30.6924 65.3381 30.6924 65.7571 31.1115 65.9666C31.321 66.1761 31.74 66.5951 31.9495 66.5951C32.3685 66.8046 32.7875 66.8046 33.2065 66.8046C33.6255 66.8046 34.0445 66.8046 34.4635 66.5951C34.8825 66.3856 35.092 66.1761 35.3015 65.9666C35.511 65.7571 35.7205 65.3381 35.93 64.9191C36.1395 64.5001 36.1395 64.0811 36.1395 63.6621C36.1395 63.2431 36.1395 62.8241 35.93 62.4051C35.7205 62.1956 35.511 61.7766 35.3015 61.3575ZM35.092 64.7096C35.092 64.9191 34.8825 65.3381 34.673 65.5476C34.4635 65.7571 34.254 65.9666 34.0445 66.1761C33.835 66.3856 33.416 66.3856 33.2065 66.3856C32.7875 66.3856 32.578 66.3856 32.3685 66.1761C32.159 65.9666 31.9495 65.7571 31.74 65.5476C31.5305 65.3381 31.5305 64.9191 31.321 64.7096C31.321 64.2906 31.1115 64.0811 31.1115 63.6621C31.1115 63.2431 31.1115 63.0336 31.321 62.6146C31.321 62.4051 31.5305 61.9861 31.74 61.7766C31.9495 61.5671 32.159 61.3575 32.3685 61.148C32.578 60.9385 32.997 60.9385 33.416 60.9385C33.835 60.9385 34.0445 60.9385 34.254 61.148C34.4635 61.3575 34.673 61.5671 34.8825 61.7766C35.092 61.9861 35.092 62.4051 35.3015 62.6146C35.3015 63.0336 35.511 63.2431 35.511 63.6621C35.3015 64.0811 35.3015 64.5001 35.092 64.7096Z" fill="#00827A"/>
<path d="M40.1206 60.5195C39.7015 60.5195 39.073 60.5195 38.654 60.9385C38.235 61.148 38.0255 61.5671 37.816 62.1956V60.729H37.1875V67.0142H38.0255V63.6621C38.0255 63.4526 38.0255 63.0336 38.235 62.8241C38.4445 62.6146 38.4445 62.4051 38.654 62.1956C38.8635 61.9861 39.073 61.7766 39.2825 61.7766C39.492 61.5671 39.9111 61.5671 40.1206 61.5671V60.5195Z" fill="#00827A"/>
<path d="M43.2622 58.2139L39.9102 66.8035H40.7482L41.7957 64.08H45.5668L46.6143 66.8035H47.4523L44.1002 58.2139H43.2622ZM42.0052 63.4515L43.6812 59.0519L45.3573 63.4515H42.0052Z" fill="#00827A"/>
<path d="M49.129 58.2139H48.291V66.8035H49.129V58.2139Z" fill="#00827A"/>
<defs>
<linearGradient id="paint0_linear_982_5832" x1="13.7657" y1="52.9217" x2="13.7657" y2="-0.0104746" gradientUnits="userSpaceOnUse">
<stop offset="0.18" stop-color="#015C57"/>
<stop offset="0.34" stop-color="#037E76"/>
<stop offset="0.51" stop-color="#059B91"/>
<stop offset="0.67" stop-color="#07AFA5"/>
<stop offset="0.84" stop-color="#08BCB0"/>
<stop offset="1" stop-color="#08C0B4"/>
</linearGradient>
<linearGradient id="paint1_linear_982_5832" x1="42.3917" y1="52.9695" x2="42.3917" y2="-0.0283332" gradientUnits="userSpaceOnUse">
<stop offset="0.18" stop-color="#015C57"/>
<stop offset="0.34" stop-color="#037E76"/>
<stop offset="0.51" stop-color="#059B91"/>
<stop offset="0.67" stop-color="#07AFA5"/>
<stop offset="0.84" stop-color="#08BCB0"/>
<stop offset="1" stop-color="#08C0B4"/>
</linearGradient>
</defs>
</svg>
