<svg width="61" height="52" viewBox="0 0 61 52" fill="none" xmlns="http://www.w3.org/2000/svg">
<path d="M37.2287 42.6646C44.7719 34.188 44.0153 21.2014 35.5388 13.6581L31.5349 10.0951C25.2696 4.51964 15.6708 5.07887 10.0953 11.3442C4.51988 17.6095 5.07911 27.2083 11.3444 32.7837L27.0591 46.7682C29.068 48.5558 32.1456 48.3766 33.9333 46.3677L37.2287 42.6646Z" fill="url(#paint0_linear_982_6061)"/>
<g filter="url(#filter0_bi_982_6061)">
<path d="M25.381 45.2248C16.9963 37.3762 16.5617 24.2166 24.4103 15.8319L28.2437 11.7367C33.9751 5.61382 43.585 5.29647 49.7079 11.0279C55.8308 16.7594 56.1482 26.3692 50.4167 32.4921L35.6997 48.2144C33.862 50.1776 30.7808 50.2793 28.8176 48.4417L25.381 45.2248Z" fill="#BCE4F1" fill-opacity="0.6"/>
</g>
<defs>
<filter id="filter0_bi_982_6061" x="13.8665" y="1.99829" width="45.5801" height="52.688" filterUnits="userSpaceOnUse" color-interpolation-filters="sRGB">
<feFlood flood-opacity="0" result="BackgroundImageFix"/>
<feGaussianBlur in="BackgroundImageFix" stdDeviation="2.46521"/>
<feComposite in2="SourceAlpha" operator="in" result="effect1_backgroundBlur_982_6061"/>
<feBlend mode="normal" in="SourceGraphic" in2="effect1_backgroundBlur_982_6061" result="shape"/>
<feColorMatrix in="SourceAlpha" type="matrix" values="0 0 0 0 0 0 0 0 0 0 0 0 0 0 0 0 0 0 127 0" result="hardAlpha"/>
<feOffset dx="0.246521" dy="0.12326"/>
<feGaussianBlur stdDeviation="0.616302"/>
<feComposite in2="hardAlpha" operator="arithmetic" k2="-1" k3="1"/>
<feColorMatrix type="matrix" values="0 0 0 0 1 0 0 0 0 1 0 0 0 0 1 0 0 0 0.6 0"/>
<feBlend mode="normal" in2="shape" result="effect2_innerShadow_982_6061"/>
</filter>
<linearGradient id="paint0_linear_982_6061" x1="42.646" y1="32.3864" x2="18.6427" y2="4.76594" gradientUnits="userSpaceOnUse">
<stop stop-color="#00827A"/>
<stop offset="1" stop-color="#08C0B4"/>
</linearGradient>
</defs>
</svg>
