<svg width="118" height="55" viewBox="0 0 118 55" fill="none" xmlns="http://www.w3.org/2000/svg">
<path d="M110.345 19.4799C110.712 19.1123 111.172 18.9285 111.677 18.9285C112.183 18.9285 112.642 19.1123 113.01 19.4799C113.745 20.2151 113.745 21.4098 113.01 22.145C112.642 22.5126 112.183 22.6964 111.677 22.6964C111.218 22.6964 110.712 22.5126 110.345 22.145C109.61 21.4098 109.61 20.2151 110.345 19.4799Z" fill="url(#paint0_linear_982_5923)"/>
<path fill-rule="evenodd" clip-rule="evenodd" d="M107.128 16.6309C109.058 14.4252 112.55 13.9657 114.986 15.574C117.145 16.9985 118.156 19.1122 117.743 21.7314C117.421 24.3047 115.859 26.0508 113.239 26.832H113.193C112.734 32.9434 110.069 37.998 105.198 41.9038C100.006 46.0394 93.8942 48.3829 87.0475 48.8424C86.4616 48.8768 85.8758 48.8338 85.2899 48.7907C85.0946 48.7763 84.8993 48.762 84.704 48.7505C84.6619 48.7463 84.6203 48.7421 84.5789 48.7379C84.1688 48.6965 83.7931 48.6586 83.4174 48.6586C83.184 48.6586 83.0473 48.6828 82.9724 48.696C82.9441 48.7011 82.9245 48.7045 82.9119 48.7045C78.6845 52.013 73.8137 54.0348 68.3915 54.7241C67.013 54.9079 65.6804 54.9998 64.3478 54.9998C57.9607 54.9998 51.9411 53.0239 46.3351 49.1181C44.8647 48.0612 43.3943 46.8205 41.8779 45.3501C41.0653 44.5762 40.3179 43.7046 39.5808 42.8449C39.4425 42.6837 39.3047 42.5229 39.1668 42.3633C39.0108 42.145 38.8337 41.9478 38.6498 41.7431C38.5628 41.6462 38.4742 41.5476 38.3856 41.4443C38.1559 41.5822 37.9261 41.72 37.6504 41.8579C34.5717 43.3742 30.9876 43.7418 27.1277 42.8688C22.8083 41.9038 19.1323 40.2036 16.2374 37.8142C13.7101 35.7005 10.8152 34.0003 8.05813 32.392C7.09316 31.8406 6.08224 31.2432 5.11728 30.6459C2.08453 28.7619 0.935757 26.2805 1.48717 22.7883C1.53312 22.3288 1.48717 22.1909 1.16551 21.8693C1.15804 21.8607 1.15049 21.8521 1.14288 21.8434C0.822824 21.4781 0.38755 20.9813 0.5222 20.3529C0.706003 19.7096 1.34931 19.4339 1.85477 19.296C2.36023 19.1582 2.63594 18.8825 3.00354 18.3311C3.6928 17.3661 4.29016 16.7228 4.93347 16.2173C6.03629 15.3902 7.59862 15.7578 8.33383 16.6309C9.16094 17.6418 9.11499 19.2041 8.28788 20.1231C8.03849 20.4037 7.76795 20.6208 7.50496 20.8319C7.3803 20.9319 7.25733 21.0306 7.13911 21.1341C6.86341 21.3638 6.5877 21.5936 6.35795 21.8233C5.99034 22.145 5.62274 22.5126 5.48488 22.8802C5.20918 23.4775 4.93347 24.029 4.38206 24.1668C4.10636 24.2128 3.83066 24.1668 3.55495 24.029C3.4171 25.6832 4.24421 27.3374 5.85249 28.3024C8.14466 29.7129 10.5451 31.1506 13.4068 32.8645C14.2741 33.3839 15.1837 33.9287 16.1455 34.5057H16.3293C16.4671 34.5057 16.6509 34.5057 16.8347 34.5517C16.8807 34.5517 16.9151 34.5632 16.9496 34.5747C16.9841 34.5861 17.0185 34.5976 17.0645 34.5976C17.478 34.6895 17.8916 34.7814 18.2592 35.0112C22.4407 37.7682 25.933 39.1927 29.5631 39.6063C30.9416 39.7901 32.412 39.7441 33.8825 39.5603C36.0421 39.2846 37.6504 38.0439 38.7073 35.9302C39.6723 33.9084 39.902 31.8406 39.3506 29.589C38.4316 25.867 37.0071 22.2828 34.9853 18.6068C34.8098 18.2558 34.76 17.9048 34.7158 17.5938C34.7137 17.579 34.7117 17.5644 34.7096 17.5499C34.7096 17.474 34.6956 17.412 34.6831 17.3563C34.6729 17.3109 34.6636 17.2696 34.6636 17.2282C34.6177 17.1363 34.6177 16.9985 34.6177 16.9066V16.8606L33.1013 14.3793C31.4011 11.5303 29.609 8.5895 27.817 5.74055C26.9439 4.36203 25.4735 3.67276 23.8192 3.81062C24.003 4.13227 24.049 4.36203 23.9571 4.68368C23.8322 5.18318 23.4057 5.38103 22.7458 5.68711C22.6772 5.71892 22.6062 5.7519 22.5326 5.7865L22.4407 5.83245C22.211 5.92435 21.9812 6.20006 21.7515 6.47576L21.6596 6.61361C21.4298 6.84337 21.246 7.07312 21.0622 7.34883C20.7865 7.76238 20.4648 8.17594 20.0513 8.54355C19.0863 9.46256 17.524 9.50851 16.5131 8.6814C15.4562 7.80833 15.3183 6.20006 16.1455 5.14319C16.7428 4.36203 17.5699 3.76467 18.2132 3.30516C18.7647 2.93755 18.9944 2.6159 19.1323 2.20234C19.3161 1.69688 19.5918 1.00762 20.2351 0.869767C20.8784 0.731915 21.3839 1.19142 21.7515 1.55903C21.9353 1.78878 22.0731 1.83473 22.4867 1.74283C25.4735 1.19142 27.817 1.97259 29.4252 3.99442C29.8909 4.6153 30.291 5.30173 30.6809 5.97067C30.7527 6.09385 30.8242 6.21643 30.8957 6.33791C31.0795 6.70551 31.2633 7.02717 31.493 7.39478L32.412 8.91115C33.7446 11.1168 35.1231 13.3684 36.5017 15.574C36.5476 15.6659 36.6855 15.7578 36.8233 15.8497C36.8693 15.8957 36.9267 15.9416 36.9841 15.9876C37.0416 16.0335 37.099 16.0795 37.145 16.1254C37.1679 16.1484 37.1909 16.1599 37.2139 16.1714C37.2369 16.1829 37.2598 16.1944 37.2828 16.2173C37.4666 16.3552 37.6964 16.539 37.8342 16.8147L38.018 17.1823C40.0858 21.0422 42.1995 25.0399 42.751 29.5431C43.1645 33.1272 42.751 35.7924 41.4643 38.1818C41.3724 38.4115 41.2346 38.5953 41.0968 38.7791C40.9589 38.9629 40.7291 39.2846 40.7291 39.3765C40.7751 39.5144 41.0508 39.836 41.2346 40.0198C41.2634 40.0582 41.2901 40.0945 41.3157 40.1293C41.4128 40.2612 41.4931 40.3703 41.6022 40.4793C45.2323 45.0744 49.7355 48.3829 55.0198 50.2668C63.5667 53.2996 71.8378 52.3806 79.6494 47.4638H79.6035C78.8683 47.0962 78.133 46.6827 77.4897 46.1772C73.7677 43.2823 71.7459 39.6522 71.4242 35.3788C71.0566 30.3702 75.0544 27.0617 79.1899 26.3265C81.8091 25.9129 84.0148 26.3265 85.8528 27.6131C87.8287 29.0376 88.9315 31.1513 89.1612 34.1381C89.5289 38.6873 88.3801 42.639 85.8068 45.8556C90.7236 45.9015 95.5024 44.523 100.511 41.6281C104.601 39.2387 107.496 36.0221 109.104 32.0244C109.793 30.3242 110.161 28.624 110.299 26.832C108.874 26.4643 107.771 25.7751 106.898 24.6723C104.968 22.3288 105.106 18.9284 107.128 16.6309ZM108.093 20.8584C108.093 21.7774 108.461 22.6504 109.15 23.3397C109.839 24.029 110.712 24.3966 111.631 24.3966C112.596 24.3966 113.469 24.029 114.158 23.3397C115.537 21.9612 115.537 19.7555 114.158 18.377C113.423 17.6418 112.55 17.2742 111.631 17.2742C110.758 17.2742 109.839 17.6418 109.15 18.3311C108.461 19.0203 108.093 19.8934 108.093 20.8584ZM82.866 44.6149C83.0957 44.3852 83.3255 44.1554 83.5093 43.8797C86.0366 40.6172 86.7718 36.9411 85.7609 32.6217C85.5311 31.5649 84.9797 30.7378 84.1526 30.0945C82.866 29.1295 81.3496 28.8538 79.4656 29.2673C77.3978 29.7269 75.7896 30.7837 74.9624 32.2082C74.1353 33.5867 74.0434 35.2409 74.5948 37.1709C75.1922 39.2846 76.295 41.0767 77.9033 42.7769C79.0061 43.8797 80.4306 44.7528 82.0389 45.2582C82.2227 45.3042 82.2686 45.3042 82.2686 45.3042L82.3605 45.2123C82.4984 45.0285 82.6822 44.7987 82.866 44.6149Z" fill="url(#paint1_linear_982_5923)"/>
<defs>
<linearGradient id="paint0_linear_982_5923" x1="59.1653" y1="0.844727" x2="59.1653" y2="54.9998" gradientUnits="userSpaceOnUse">
<stop stop-color="#08C0B4"/>
<stop offset="1" stop-color="#015C57"/>
</linearGradient>
<linearGradient id="paint1_linear_982_5923" x1="59.1653" y1="0.844727" x2="59.1653" y2="54.9998" gradientUnits="userSpaceOnUse">
<stop stop-color="#08C0B4"/>
<stop offset="1" stop-color="#015C57"/>
</linearGradient>
</defs>
</svg>
